<?xml version="1.0" ?><!DOCTYPE svg  PUBLIC '-//W3C//DTD SVG 1.1//EN'  'http://www.w3.org/Graphics/SVG/1.1/DTD/svg11.dtd'><svg enable-background="new 0 0 50 50" height="50px" id="Layer_1" version="1.1" viewBox="0 0 50 50" width="50px" xml:space="preserve" xmlns="http://www.w3.org/2000/svg" xmlns:xlink="http://www.w3.org/1999/xlink"><g><path d="M40.295,1.45H9.705c-5.036,0-9.12,3.935-9.12,8.795v29.51c0,4.854,4.084,8.795,9.12,8.795h30.59   c5.035,0,9.121-3.94,9.121-8.795v-29.51C49.416,5.385,45.33,1.45,40.295,1.45z M17.033,37.244h-4.399V20.057h4.399V37.244z    M17.033,17.094h-4.399v-4.338h4.399V17.094z M37.365,37.244h-4.402V25.26c0-0.706-0.139-1.207-0.42-1.506   c-0.276-0.299-0.67-0.448-1.183-0.448c-0.548,0-1.126,0.149-1.735,0.448c-0.613,0.299-1.393,0.881-2.346,1.74v11.75h-4.431V20.057   h4.431v2.347c0.92-0.86,1.867-1.518,2.84-1.971c0.976-0.45,2.051-0.677,3.231-0.677c1.327,0,2.281,0.316,2.857,0.947   c0.772,0.84,1.157,1.99,1.157,3.454V37.244z" fill="#404041"/></g></svg>